<?xml version="1.0" encoding="UTF-8" standalone="no"?>
<svg
   inkscape:export-ydpi="104.0495"
   inkscape:export-xdpi="104.0495"
   inkscape:export-filename="C:\Users\zjx8rj\OneDrive\radarsimpy\docs\radarsimpy.png"
   width="1313.8971mm"
   height="855.26251mm"
   viewBox="0 0 1313.8971 855.26251"
   version="1.1"
   id="svg8"
   inkscape:version="1.3.2 (091e20e, 2023-11-25, custom)"
   sodipodi:docname="radarsimx_main.svg"
   xmlns:inkscape="http://www.inkscape.org/namespaces/inkscape"
   xmlns:sodipodi="http://sodipodi.sourceforge.net/DTD/sodipodi-0.dtd"
   xmlns="http://www.w3.org/2000/svg"
   xmlns:svg="http://www.w3.org/2000/svg"
   xmlns:rdf="http://www.w3.org/1999/02/22-rdf-syntax-ns#"
   xmlns:cc="http://creativecommons.org/ns#"
   xmlns:dc="http://purl.org/dc/elements/1.1/">
  <defs
     id="defs2" />
  <sodipodi:namedview
     id="base"
     pagecolor="#ffffff"
     bordercolor="#666666"
     borderopacity="1.0"
     inkscape:pageopacity="0.0"
     inkscape:pageshadow="2"
     inkscape:zoom="0.24748737"
     inkscape:cx="2460.7316"
     inkscape:cy="1301.0765"
     inkscape:document-units="mm"
     inkscape:current-layer="g402"
     inkscape:document-rotation="0"
     showgrid="false"
     inkscape:window-width="3840"
     inkscape:window-height="2054"
     inkscape:window-x="-11"
     inkscape:window-y="-11"
     inkscape:window-maximized="1"
     inkscape:snap-bbox="false"
     inkscape:snap-bbox-midpoints="false"
     inkscape:object-paths="true"
     inkscape:snap-bbox-edge-midpoints="true"
     inkscape:snap-smooth-nodes="true"
     inkscape:object-nodes="true"
     inkscape:snap-intersection-paths="true"
     fit-margin-left="20"
     fit-margin-right="20"
     fit-margin-top="20"
     fit-margin-bottom="20"
     inkscape:showpageshadow="2"
     inkscape:pagecheckerboard="0"
     inkscape:deskcolor="#d1d1d1" />
  <metadata
     id="metadata5">
    <rdf:RDF>
      <cc:Work
         rdf:about="">
        <dc:format>image/svg+xml</dc:format>
        <dc:type
           rdf:resource="http://purl.org/dc/dcmitype/StillImage" />
      </cc:Work>
    </rdf:RDF>
  </metadata>
  <g
     inkscape:label="Layer 1"
     inkscape:groupmode="layer"
     id="layer1"
     transform="translate(-335.99402,56.628833)">
    <g
       id="g402"
       transform="translate(3.050145,-5.3453742)">
      <rect
         style="fill:#ffffff;fill-opacity:1;stroke-width:0.499999;stroke-linecap:round"
         id="rect1"
         width="1313.8971"
         height="855.26251"
         x="332.94388"
         y="-51.283459"
         rx="50"
         ry="50" />
      <path
         d="M 1229.6785,720.48486 V 614.60245 h 19.8719 v 89.49946 h 46.8734 v 16.38295 z"
         style="font-size:151.694px;line-height:1.25;font-family:'IBM Plex Mono SemiBold';-inkscape-font-specification:'IBM Plex Mono SemiBold, ';fill:#4caf50;fill-opacity:0.301961;stroke-width:0.264583"
         id="path1773" />
      <path
         d="m 1319.0611,720.48486 v -14.86601 h 23.8159 v -76.15039 h -23.8159 v -14.86601 h 67.3521 v 14.86601 h -23.816 v 76.15039 h 23.816 v 14.86601 z"
         style="font-size:151.694px;line-height:1.25;font-family:'IBM Plex Mono SemiBold';-inkscape-font-specification:'IBM Plex Mono SemiBold, ';fill:#4caf50;fill-opacity:0.301961;stroke-width:0.264583"
         id="path1775" />
      <path
         d="m 1406.6233,614.60245 h 36.8617 q 15.0177,0 23.0574,7.5847 8.1914,7.43301 8.1914,20.327 0,9.10164 -4.5508,14.56262 -4.3991,5.46099 -12.5906,7.88809 v 0.75847 q 9.5568,2.27541 15.0178,8.34317 5.6126,5.91607 5.6126,16.83803 0,6.67454 -2.2754,12.13552 -2.1237,5.30929 -6.2194,9.25334 -3.944,3.94404 -9.7084,6.06776 -5.6127,2.12371 -12.7423,2.12371 h -40.654 z m 34.5862,91.47148 q 8.3432,0 12.439,-3.03388 4.2474,-3.18557 4.2474,-10.77027 v -5.0059 q 0,-7.43301 -4.2474,-10.46689 -4.0958,-3.18557 -12.439,-3.18557 h -15.1694 v 32.46251 z m -2.5788,-46.26667 q 8.0398,0 11.8322,-2.88218 3.944,-2.88219 3.944,-10.01181 v -5.0059 q 0,-7.12962 -3.944,-10.0118 -3.7924,-2.88219 -11.8322,-2.88219 h -12.5906 v 30.79388 z"
         style="font-size:151.694px;line-height:1.25;font-family:'IBM Plex Mono SemiBold';-inkscape-font-specification:'IBM Plex Mono SemiBold, ';fill:#4caf50;fill-opacity:0.301961;stroke-width:0.264583"
         id="path1777" />
      <path
         d="m 533.19634,323.79166 q 22.36458,0 32.93413,8.11865 10.72274,8.11864 10.72274,24.6623 0,7.50592 -2.91045,13.17365 -2.75728,5.51455 -7.50592,9.49729 -4.59546,3.82955 -9.95683,6.28046 l 32.16822,47.6396 h -25.73458 l -26.04094,-41.97187 h -12.40774 v 41.97187 H 501.33449 V 323.79166 Z m -1.685,18.99457 h -7.04637 v 29.56413 h 7.50592 q 11.48865,0 16.39047,-3.82956 5.05501,-3.82955 5.05501,-11.33546 0,-7.81229 -5.36137,-11.02911 -5.20819,-3.37 -16.54366,-3.37 z"
         style="font-weight:bold;font-size:153.182px;font-family:'Noto Sans';-inkscape-font-specification:'Noto Sans Bold';fill:#666666;stroke-width:3.8;stroke-linecap:round"
         id="path4131" />
      <path
         d="m 634.90917,346.30941 q 16.85002,0 25.73458,7.35274 9.03773,7.19955 9.03773,22.21139 v 55.75825 h -15.93093 l -4.44227,-11.33547 h -0.61273 q -5.36137,6.74001 -11.33547,9.80365 -5.9741,3.06364 -16.39047,3.06364 -11.18229,0 -18.53503,-6.43364 -7.35273,-6.58683 -7.35273,-20.06685 0,-13.32683 9.3441,-19.60729 9.3441,-6.43365 28.03231,-7.04637 l 14.55229,-0.45955 v -3.67637 q 0,-6.58682 -3.52319,-9.65047 -3.37,-3.06364 -9.49728,-3.06364 -6.12728,0 -11.9482,1.83819 -5.82092,1.685 -11.64183,4.2891 l -7.50592,-15.47139 q 6.74001,-3.52318 14.85865,-5.51455 8.27183,-1.99137 17.15639,-1.99137 z m 3.21682,46.8737 q -11.0291,0.30636 -15.3182,3.98273 -4.2891,3.67637 -4.2891,9.65047 0,5.20818 3.06364,7.50592 3.06364,2.14454 7.96547,2.14454 7.35273,0 12.40774,-4.28909 5.05501,-4.44228 5.05501,-12.40775 v -6.89319 z"
         style="font-weight:bold;font-size:153.182px;font-family:'Noto Sans';-inkscape-font-specification:'Noto Sans Bold';fill:#666666;stroke-width:3.8;stroke-linecap:round"
         id="path4133" />
      <path
         d="m 719.61883,433.16361 q -13.93956,0 -22.82412,-10.87592 -8.73138,-11.02911 -8.73138,-32.3214 0,-21.44548 8.88456,-32.47459 8.88456,-11.0291 23.28367,-11.0291 9.03773,0 14.85865,3.52318 5.82092,3.52319 9.19092,8.73138 h 0.76591 q -0.45954,-2.45092 -1.07227,-7.04638 -0.61273,-4.74864 -0.61273,-9.65046 v -26.80685 h 22.82412 v 116.41832 h -17.46275 l -4.44228,-10.87592 h -0.91909 q -3.37001,5.20819 -9.03774,8.88456 -5.66773,3.52318 -14.70547,3.52318 z m 7.96546,-18.22866 q 9.49729,0 13.32684,-5.51455 3.82955,-5.66773 3.98273,-16.85002 v -2.45091 q 0,-12.25456 -3.82955,-18.68821 -3.67637,-6.43364 -13.78638,-6.43364 -7.50592,0 -11.79502,6.58683 -4.28909,6.43364 -4.28909,18.6882 0,12.25456 4.28909,18.53502 4.2891,6.12728 12.10138,6.12728 z"
         style="font-weight:bold;font-size:153.182px;font-family:'Noto Sans';-inkscape-font-specification:'Noto Sans Bold';fill:#666666;stroke-width:3.8;stroke-linecap:round"
         id="path4135" />
      <path
         d="m 824.39525,346.30941 q 16.85002,0 25.73458,7.35274 9.03774,7.19955 9.03774,22.21139 v 55.75825 h -15.93093 l -4.44228,-11.33547 h -0.61273 q -5.36137,6.74001 -11.33547,9.80365 -5.97409,3.06364 -16.39047,3.06364 -11.18229,0 -18.53502,-6.43364 -7.35274,-6.58683 -7.35274,-20.06685 0,-13.32683 9.3441,-19.60729 9.34411,-6.43365 28.03231,-7.04637 l 14.55229,-0.45955 v -3.67637 q 0,-6.58682 -3.52319,-9.65047 -3.37,-3.06364 -9.49728,-3.06364 -6.12728,0 -11.9482,1.83819 -5.82091,1.685 -11.64183,4.2891 l -7.50592,-15.47139 q 6.74001,-3.52318 14.85866,-5.51455 8.27183,-1.99137 17.15638,-1.99137 z m 3.21682,46.8737 q -11.0291,0.30636 -15.3182,3.98273 -4.28909,3.67637 -4.28909,9.65047 0,5.20818 3.06364,7.50592 3.06364,2.14454 7.96546,2.14454 7.35274,0 12.40774,-4.28909 5.05501,-4.44228 5.05501,-12.40775 v -6.89319 z"
         style="font-weight:bold;font-size:153.182px;font-family:'Noto Sans';-inkscape-font-specification:'Noto Sans Bold';fill:#666666;stroke-width:3.8;stroke-linecap:round"
         id="path4137" />
      <path
         d="m 929.32494,347.99442 q 1.685,0 3.98273,0.15318 2.29773,0.15318 3.67637,0.45954 l -1.685,21.44549 q -1.07228,-0.30637 -3.21683,-0.45955 -1.99136,-0.30636 -3.52318,-0.30636 -5.82092,0 -11.18229,2.14454 -5.36137,1.99137 -8.73137,6.58683 -3.21683,4.59546 -3.21683,12.56092 v 42.5846 h -22.82412 v -83.63737 h 17.30957 l 3.37001,14.09274 h 1.07227 q 3.67637,-6.43364 10.11001,-11.0291 6.43365,-4.59546 14.85866,-4.59546 z"
         style="font-weight:bold;font-size:153.182px;font-family:'Noto Sans';-inkscape-font-specification:'Noto Sans Bold';fill:#666666;stroke-width:3.8;stroke-linecap:round"
         id="path4139" />
      <path
         d="m 1018.4769,401.30175 q 0,14.5523 -10.5695,23.28367 -10.41639,8.57819 -29.71733,8.57819 -17.30956,0 -30.94276,-6.58682 v -21.59867 q 7.81228,3.37001 16.08411,6.28046 8.42501,2.75728 16.69684,2.75728 8.57819,0 12.10138,-3.21682 3.67636,-3.37001 3.67636,-8.42501 0,-4.13592 -2.91045,-7.04637 -2.75728,-2.91046 -7.50592,-5.36137 -4.74864,-2.6041 -10.87592,-5.51456 -3.82955,-1.83818 -8.27183,-4.28909 -4.44228,-2.6041 -8.57819,-6.28046 -3.98274,-3.82955 -6.58683,-9.19093 -2.6041,-5.36137 -2.6041,-12.86728 0,-14.70548 9.95684,-22.82412 9.95683,-8.27183 27.11321,-8.27183 8.57819,0 16.23729,1.99137 7.8123,1.99136 16.2373,5.66773 l -7.5059,18.07548 q -7.5059,-3.06364 -13.48004,-4.74865 -5.9741,-1.685 -12.25456,-1.685 -6.58683,0 -10.11001,3.06364 -3.52319,3.06364 -3.52319,7.96547 0,5.82091 5.20819,9.19092 5.20819,3.37 15.47138,8.27183 8.42503,3.98273 14.24593,8.27182 5.9741,4.2891 9.1909,10.11002 3.2168,5.82091 3.2168,14.3991 z"
         style="font-weight:bold;font-size:153.182px;font-family:'Noto Sans';-inkscape-font-specification:'Noto Sans Bold';fill:#666666;stroke-width:3.8;stroke-linecap:round"
         id="path4141" />
      <path
         d="m 1048.0411,316.74529 q 5.055,0 8.7314,2.45091 3.6764,2.29773 3.6764,8.73137 0,6.28047 -3.6764,8.73138 -3.6764,2.45091 -8.7314,2.45091 -5.2082,0 -8.8845,-2.45091 -3.5232,-2.45091 -3.5232,-8.73138 0,-6.43364 3.5232,-8.73137 3.6763,-2.45091 8.8845,-2.45091 z m 11.3355,32.78095 v 83.63737 h -22.8241 v -83.63737 z"
         style="font-weight:bold;font-size:153.182px;font-family:'Noto Sans';-inkscape-font-specification:'Noto Sans Bold';fill:#666666;stroke-width:3.8;stroke-linecap:round"
         id="path4143" />
      <path
         d="m 1181.4627,347.99442 q 14.2459,0 21.4454,7.35273 7.3528,7.19956 7.3528,23.28367 v 54.53279 h -22.8241 v -48.86506 q 0,-18.07548 -12.561,-18.07548 -9.0377,0 -12.8673,6.43365 -3.8295,6.43364 -3.8295,18.53502 v 41.97187 h -22.8241 v -48.86506 q 0,-18.07548 -12.5609,-18.07548 -9.4973,0 -13.1737,7.19956 -3.5232,7.04637 -3.5232,20.37321 v 39.36777 h -22.8241 v -83.63737 h 17.4627 l 3.0637,10.72274 h 1.2254 q 3.8296,-6.43365 10.4164,-9.34411 6.74,-2.91045 13.9396,-2.91045 9.1909,0 15.6245,3.06364 6.4337,2.91045 9.8037,9.19092 h 1.9914 q 3.8295,-6.43365 10.5695,-9.34411 6.8932,-2.91045 14.0928,-2.91045 z"
         style="font-weight:bold;font-size:153.182px;font-family:'Noto Sans';-inkscape-font-specification:'Noto Sans Bold';fill:#666666;stroke-width:3.8;stroke-linecap:round"
         id="path4145" />
      <path
         d="M 1227.0238,285.17154 V 179.28913 h 40.1989 q 15.4728,0 23.6643,8.79825 8.1915,8.79825 8.1915,23.96765 0,15.1694 -8.1915,23.96765 -8.1915,8.79826 -23.6643,8.79826 h -20.327 v 40.3506 z m 19.8719,-56.58186 h 16.2313 q 8.0398,0 11.5287,-3.18558 3.489,-3.33726 3.489,-10.46688 v -5.76437 q 0,-7.12962 -3.489,-10.3152 -3.4889,-3.33726 -11.5287,-3.33726 h -16.2313 z"
         style="font-size:151.694px;line-height:1.25;font-family:'IBM Plex Mono SemiBold';-inkscape-font-specification:'IBM Plex Mono SemiBold, ';fill:#4caf50;fill-opacity:0.698039;stroke-width:0.264583"
         id="path1762" />
      <path
         d="m 1342.877,285.17154 v -38.68197 l -34.4345,-67.20044 h 22.1473 l 12.2872,25.48459 9.5568,21.69224 h 1.0618 l 9.7084,-21.69224 12.4389,-25.48459 h 21.3889 l -34.4345,67.20044 v 38.68197 z"
         style="font-size:151.694px;line-height:1.25;font-family:'IBM Plex Mono SemiBold';-inkscape-font-specification:'IBM Plex Mono SemiBold, ';fill:#4caf50;fill-opacity:0.698039;stroke-width:0.264583"
         id="path1764" />
      <g
         aria-label="M"
         id="text266-9"
         style="font-size:151.694px;line-height:1.25;fill:#4caf50;fill-opacity:0.698039;stroke-width:0.264583"
         transform="translate(7.6583282)">
        <path
           d="m 1276.3266,528.04996 0.9102,-30.64219 h -1.3653 l -20.4787,54.45815 -20.4786,-54.45815 h -1.3653 l 0.9102,30.64219 v 48.99716 H 1217.166 V 471.16471 h 23.6642 l 14.7143,38.98536 h 1.0619 l 14.866,-38.98536 h 22.1473 v 105.88241 h -17.2931 z"
           style="font-family:'IBM Plex Mono SemiBold';-inkscape-font-specification:'IBM Plex Mono SemiBold, '"
           id="path1770" />
      </g>
      <g
         aria-label="X"
         id="text266-9-7"
         style="font-size:151.694px;line-height:1.25;fill:#ffffff;stroke:#4caf50;stroke-width:5">
        <path
           d="m 1306.4349,431.10931 h -22.4507 l -11.5287,-21.08546 -9.2534,-18.50667 h -1.2135 l -9.5567,18.50667 -11.8322,21.08546 h -20.9337 l 31.0972,-54.60984 -29.1252,-51.27257 h 22.6024 l 9.7084,17.89989 9.2533,18.35498 h 1.0619 l 9.405,-18.35498 10.1635,-17.89989 h 20.9338 l -29.277,51.57596 z"
           style="font-family:'IBM Plex Mono SemiBold';-inkscape-font-specification:'IBM Plex Mono SemiBold, '"
           id="path1767" />
      </g>
      <path
         d="m 1265.3266,141.73378 q -20.7821,0 -30.7939,-14.25924 -9.8601,-14.25923 -9.8601,-40.502294 0,-26.091368 9.8601,-40.350604 10.0118,-14.41093 30.7939,-14.41093 7.8881,0 13.8041,2.123716 6.0678,2.123716 10.4669,5.916066 4.3992,3.640656 7.2813,8.949946 2.8822,5.157596 4.5509,11.37705 l -18.2033,5.157596 q -1.0619,-3.640656 -2.4271,-6.82623 -1.3653,-3.185574 -3.489,-5.460984 -1.972,-2.427104 -5.0059,-3.640656 -3.0339,-1.365246 -7.2813,-1.365246 -10.3152,0 -14.866,7.888088 -4.3991,7.888088 -4.3991,21.540548 v 18.20328 q 0,13.652464 4.3991,21.540544 4.5508,7.88809 14.866,7.88809 4.2474,0 7.2813,-1.21355 3.0339,-1.36525 5.0059,-3.64066 2.1237,-2.4271 3.489,-5.61267 1.3652,-3.18558 2.4271,-6.82623 l 18.2033,5.15759 q -1.6687,6.21946 -4.5509,11.52875 -2.8821,5.15759 -7.2813,8.94994 -4.3991,3.64066 -10.4669,5.76437 -5.916,2.12372 -13.8041,2.12372 z"
         style="font-size:151.694px;line-height:1.25;font-family:'IBM Plex Mono SemiBold';-inkscape-font-specification:'IBM Plex Mono SemiBold, ';fill:#4caf50;fill-opacity:0.301961;stroke-width:0.264583"
         id="path1755" />
      <path
         d="M 1316.7098,139.91345 V 34.03104 h 40.1989 q 15.4728,0 23.6642,8.798252 8.1915,8.798252 8.1915,23.967652 0,15.1694 -8.1915,23.967652 -8.1914,8.798252 -23.6642,8.798252 h -20.327 v 40.350602 z m 19.8719,-56.58186 h 16.2312 q 8.0398,0 11.5288,-3.185574 3.489,-3.337268 3.489,-10.466886 v -5.764372 q 0,-7.129618 -3.489,-10.315192 -3.489,-3.337268 -11.5288,-3.337268 h -16.2312 z"
         style="font-size:151.694px;line-height:1.25;font-family:'IBM Plex Mono SemiBold';-inkscape-font-specification:'IBM Plex Mono SemiBold, ';fill:#4caf50;fill-opacity:0.301961;stroke-width:0.264583"
         id="path1757" />
      <path
         d="M 1406.3957,139.91345 V 34.03104 h 40.1989 q 15.4728,0 23.6643,8.798252 8.1915,8.798252 8.1915,23.967652 0,15.1694 -8.1915,23.967652 -8.1915,8.798252 -23.6643,8.798252 h -20.327 v 40.350602 z m 19.8719,-56.58186 h 16.2313 q 8.0398,0 11.5287,-3.185574 3.489,-3.337268 3.489,-10.466886 v -5.764372 q 0,-7.129618 -3.489,-10.315192 -3.4889,-3.337268 -11.5287,-3.337268 h -16.2313 z"
         style="font-size:151.694px;line-height:1.25;font-family:'IBM Plex Mono SemiBold';-inkscape-font-specification:'IBM Plex Mono SemiBold, ';fill:#4caf50;fill-opacity:0.301961;stroke-width:0.264583"
         id="path1759" />
    </g>
  </g>
</svg>
