<?xml version="1.0" encoding="UTF-8" standalone="no"?>
<svg
   inkscape:export-ydpi="6.3499999"
   inkscape:export-xdpi="6.3499999"
   inkscape:export-filename="..\..\..\..\OneDrive\Desktop\radarsimdoc.png"
   width="400mm"
   height="400mm"
   viewBox="0 0 400 400"
   version="1.1"
   id="svg8"
   inkscape:version="1.3.2 (091e20e, 2023-11-25, custom)"
   sodipodi:docname="radarsimdoc.svg"
   xmlns:inkscape="http://www.inkscape.org/namespaces/inkscape"
   xmlns:sodipodi="http://sodipodi.sourceforge.net/DTD/sodipodi-0.dtd"
   xmlns="http://www.w3.org/2000/svg"
   xmlns:svg="http://www.w3.org/2000/svg"
   xmlns:rdf="http://www.w3.org/1999/02/22-rdf-syntax-ns#"
   xmlns:cc="http://creativecommons.org/ns#"
   xmlns:dc="http://purl.org/dc/elements/1.1/">
  <defs
     id="defs2" />
  <sodipodi:namedview
     id="base"
     pagecolor="#ffffff"
     bordercolor="#666666"
     borderopacity="1.0"
     inkscape:pageopacity="0.0"
     inkscape:pageshadow="2"
     inkscape:zoom="0.175"
     inkscape:cx="-482.85714"
     inkscape:cy="954.28571"
     inkscape:document-units="mm"
     inkscape:current-layer="g2485"
     inkscape:document-rotation="0"
     showgrid="false"
     inkscape:window-width="2253"
     inkscape:window-height="1538"
     inkscape:window-x="137"
     inkscape:window-y="168"
     inkscape:window-maximized="0"
     inkscape:snap-bbox="false"
     inkscape:snap-bbox-midpoints="false"
     inkscape:object-paths="true"
     inkscape:snap-bbox-edge-midpoints="true"
     inkscape:snap-smooth-nodes="true"
     inkscape:object-nodes="true"
     inkscape:snap-intersection-paths="true"
     fit-margin-left="20"
     fit-margin-right="20"
     fit-margin-top="20"
     fit-margin-bottom="20"
     inkscape:showpageshadow="2"
     inkscape:pagecheckerboard="0"
     inkscape:deskcolor="#d1d1d1" />
  <metadata
     id="metadata5">
    <rdf:RDF>
      <cc:Work
         rdf:about="">
        <dc:format>image/svg+xml</dc:format>
        <dc:type
           rdf:resource="http://purl.org/dc/dcmitype/StillImage" />
      </cc:Work>
    </rdf:RDF>
  </metadata>
  <g
     inkscape:label="Layer 1"
     inkscape:groupmode="layer"
     id="layer1"
     transform="translate(-97.885445,-132.95747)">
    <g
       id="g1"
       transform="translate(19.277105,19.277104)">
      <g
         id="g1693"
         transform="matrix(3.3032258,0,0,3.3032258,-93.844154,-174.62296)">
        <path
           style="fill:none;fill-rule:evenodd;stroke:#689f38;stroke-width:8.81944;stroke-linecap:round;stroke-miterlimit:4;stroke-dasharray:none;stroke-opacity:0.3"
           id="path1917-8-3"
           sodipodi:type="arc"
           sodipodi:cx="112.75418"
           sodipodi:cy="147.8262"
           sodipodi:rx="43.236115"
           sodipodi:ry="43.236115"
           sodipodi:start="0.67233697"
           sodipodi:end="0.67323481"
           sodipodi:open="true"
           sodipodi:arc-type="arc"
           d="m 146.58075,174.75435 a 43.236115,43.236115 0 0 1 -0.0242,0.0304" />
        <path
           id="path1917-8-3-3"
           style="fill:none;fill-rule:evenodd;stroke:#689f38;stroke-width:8.81944;stroke-linecap:round;stroke-miterlimit:4;stroke-dasharray:none;stroke-opacity:0.3"
           sodipodi:type="arc"
           sodipodi:cx="112.75418"
           sodipodi:cy="147.8262"
           sodipodi:rx="28.236115"
           sodipodi:ry="28.236115"
           sodipodi:start="0.42907075"
           sodipodi:end="0.43239907"
           sodipodi:open="true"
           sodipodi:arc-type="arc"
           d="m 138.43077,159.57316 a 28.236115,28.236115 0 0 1 -0.0392,0.0854" />
        <path
           style="fill:none;stroke:#689f38;stroke-width:8.81944;stroke-linecap:round;stroke-linejoin:miter;stroke-miterlimit:4;stroke-dasharray:none;stroke-opacity:1"
           d="m 112.75417,147.8262 33.8787,-34.94778"
           id="path2823"
           sodipodi:nodetypes="cc" />
        <path
           id="path1917-8-3-5"
           style="fill:none;fill-rule:evenodd;stroke:#689f38;stroke-width:8.81944;stroke-linecap:round;stroke-miterlimit:4;stroke-dasharray:none;stroke-opacity:0.5"
           sodipodi:type="arc"
           sodipodi:cx="112.75418"
           sodipodi:cy="147.8262"
           sodipodi:rx="43.236118"
           sodipodi:ry="43.236118"
           sodipodi:start="1.0141916"
           sodipodi:end="2.0475762"
           sodipodi:open="true"
           sodipodi:arc-type="arc"
           d="m 135.5961,184.53599 a 43.236118,43.236118 0 0 1 -42.683862,1.70452" />
        <path
           id="path1917-8-3-8"
           style="fill:none;fill-rule:evenodd;stroke:#689f38;stroke-width:8.81944;stroke-linecap:round;stroke-miterlimit:4;stroke-dasharray:none;stroke-opacity:0.8"
           sodipodi:type="arc"
           sodipodi:cx="112.75418"
           sodipodi:cy="147.8262"
           sodipodi:rx="43.236118"
           sodipodi:ry="43.236118"
           sodipodi:start="2.3929646"
           sodipodi:end="3.3145943"
           sodipodi:open="true"
           sodipodi:arc-type="arc"
           d="M 81.078391,177.25419 A 43.236118,43.236118 0 0 1 70.16347,140.38354" />
        <path
           id="path1917-8-3-36"
           style="fill:none;fill-rule:evenodd;stroke:#689f38;stroke-width:8.81944;stroke-linecap:round;stroke-miterlimit:4;stroke-dasharray:none;stroke-opacity:0.8"
           sodipodi:type="arc"
           sodipodi:cx="112.75418"
           sodipodi:cy="147.8262"
           sodipodi:rx="43.236118"
           sodipodi:ry="43.236118"
           sodipodi:start="3.639508"
           sodipodi:end="4.1831917"
           sodipodi:open="true"
           sodipodi:arc-type="arc"
           d="M 74.767788,127.17685 A 43.236118,43.236118 0 0 1 90.926834,110.50424" />
        <path
           id="path1917-8-3-38"
           style="fill:none;fill-rule:evenodd;stroke:#689f38;stroke-width:8.819;stroke-linecap:round;stroke-miterlimit:4;stroke-dasharray:none;stroke-opacity:0.956522"
           sodipodi:type="arc"
           sodipodi:cx="112.75418"
           sodipodi:cy="147.8262"
           sodipodi:rx="43.236118"
           sodipodi:ry="43.236118"
           sodipodi:start="4.5031505"
           sodipodi:end="5.2057536"
           sodipodi:open="true"
           sodipodi:arc-type="arc"
           d="m 103.77339,105.53309 a 43.236118,43.236118 0 0 1 29.45707,4.21314" />
        <path
           style="fill:none;fill-rule:evenodd;stroke:#689f38;stroke-width:8.81944;stroke-linecap:round;stroke-miterlimit:4;stroke-dasharray:none;stroke-opacity:0.5"
           id="path1917-8-3-3-7"
           sodipodi:type="arc"
           sodipodi:cx="112.75418"
           sodipodi:cy="147.8262"
           sodipodi:rx="28.236116"
           sodipodi:ry="28.236116"
           sodipodi:start="0.93760633"
           sodipodi:end="1.8331053"
           sodipodi:open="true"
           sodipodi:arc-type="arc"
           d="m 129.46204,170.58858 a 28.236116,28.236116 0 0 1 -24.0298,4.50789" />
        <path
           style="fill:none;fill-rule:evenodd;stroke:#689f38;stroke-width:8.81944;stroke-linecap:round;stroke-miterlimit:4;stroke-dasharray:none;stroke-opacity:0.7"
           id="path1917-8-3-3-8"
           sodipodi:type="arc"
           sodipodi:cx="112.75418"
           sodipodi:cy="147.8262"
           sodipodi:rx="28.236116"
           sodipodi:ry="28.236116"
           sodipodi:start="2.2906553"
           sodipodi:end="5.0246255"
           sodipodi:open="true"
           sodipodi:arc-type="arc"
           d="M 94.138712,169.0569 A 28.236116,28.236116 0 0 1 88.195079,133.89319 28.236116,28.236116 0 0 1 121.42797,120.95533" />
        <path
           id="path1917-8-3-3-6-6"
           style="fill:none;fill-rule:evenodd;stroke:#689f38;stroke-width:8.81944;stroke-linecap:round;stroke-miterlimit:4;stroke-dasharray:none;stroke-opacity:0.5"
           sodipodi:type="arc"
           sodipodi:cx="112.75418"
           sodipodi:cy="147.8262"
           sodipodi:rx="13.236115"
           sodipodi:ry="13.236115"
           sodipodi:start="1.3040048"
           sodipodi:end="1.3069404"
           sodipodi:open="true"
           sodipodi:arc-type="arc"
           d="m 116.24372,160.59405 a 13.236115,13.236115 0 0 1 -0.0375,0.0102" />
        <path
           id="path1917-8-3-3-6-1"
           style="fill:none;fill-rule:evenodd;stroke:#689f38;stroke-width:8.81944;stroke-linecap:round;stroke-miterlimit:4;stroke-dasharray:none;stroke-opacity:0.7"
           sodipodi:type="arc"
           sodipodi:cx="112.75418"
           sodipodi:cy="147.8262"
           sodipodi:rx="13.236115"
           sodipodi:ry="13.236115"
           sodipodi:start="2.2953881"
           sodipodi:end="4.3552936"
           sodipodi:open="true"
           sodipodi:arc-type="arc"
           d="m 103.98089,157.73701 a 13.236115,13.236115 0 0 1 -4.240004,-12.32926 13.236115,13.236115 0 0 1 8.386554,-9.98268" />
        <circle
           style="fill:none;fill-rule:evenodd;stroke:#456925;stroke-width:4;stroke-miterlimit:4;stroke-dasharray:none;stroke-opacity:1"
           id="path1917"
           cx="112.75417"
           cy="147.8262"
           r="52.711033" />
      </g>
      <g
         id="g2485"
         transform="translate(-3.5381187,-0.70565626)">
        <rect
           style="fill:#ffffff;fill-opacity:0.881773;stroke-width:1.62463"
           id="rect253"
           width="195.03572"
           height="116.41666"
           x="267.83362"
           y="378.69226"
           rx="10"
           ry="10" />
        <path
           d="m 344.8427,435.55836 q 0,18.11104 -10.30628,27.31665 -10.20622,9.10555 -28.7175,9.10555 h -20.21233 v -71.44355 h 22.41367 q 11.20683,0 19.41183,4.00244 8.30506,4.00244 12.80781,11.8072 4.6028,7.70469 4.6028,19.21171 z m -15.70957,0.40024 q 0,-11.90726 -5.20317,-17.41061 -5.20318,-5.60342 -15.10921,-5.60342 h -8.10494 v 46.52837 h 6.50396 q 21.91336,0 21.91336,-23.51434 z m 78.9481,8.60525 q 0,13.60829 -7.20439,21.01281 -7.10433,7.40451 -19.41184,7.40451 -7.60463,0 -13.60829,-3.30201 -5.9036,-3.30202 -9.30567,-9.60586 -3.40208,-6.4039 -3.40208,-15.50945 0,-13.6083 7.10433,-20.91275 7.10433,-7.30445 19.5119,-7.30445 7.70469,0 13.60829,3.30201 5.9036,3.30201 9.30568,9.60585 3.40207,6.20379 3.40207,15.30934 z m -37.723,0 q 0,8.10494 2.60159,12.3075 2.70165,4.1025 8.70531,4.1025 5.9036,0 8.50518,-4.1025 2.70165,-4.20256 2.70165,-12.3075 0,-8.10494 -2.70165,-12.10738 -2.60158,-4.1025 -8.60524,-4.1025 -5.9036,0 -8.60525,4.1025 -2.60159,4.00244 -2.60159,12.10738 z m 72.24399,28.41732 q -12.20744,0 -18.91153,-6.70409 -6.60402,-6.80414 -6.60402,-21.31299 0,-10.0061 3.40207,-16.30994 3.40208,-6.30384 9.40574,-9.30567 6.10372,-3.00183 14.00854,-3.00183 5.60341,0 9.70591,1.10067 4.20256,1.10067 7.30445,2.60158 l -4.40268,11.50702 q -3.50213,-1.40086 -6.60402,-2.30141 -3.00183,-0.90054 -6.00366,-0.90054 -11.60708,0 -11.60708,16.51006 0,8.205 3.00183,12.10738 3.10189,3.90238 8.60525,3.90238 4.70286,0 8.30506,-1.20073 3.60219,-1.3008 7.00427,-3.50214 v 12.70775 q -3.40208,2.20134 -7.20439,3.10189 -3.70226,1.00061 -9.40574,1.00061 z"
           id="text238"
           style="font-weight:bold;font-size:100.061px;line-height:1.25;font-family:Roboto;-inkscape-font-specification:'Roboto Bold';fill:#4d4d4d;stroke-width:2.50154"
           aria-label="Doc" />
      </g>
    </g>
  </g>
</svg>
