<?xml version="1.0" encoding="UTF-8" standalone="no"?>
<svg
   viewBox="0 0 155 60"
   version="1.1"
   id="svg68"
   sodipodi:docname="download_radarsimpy.svg"
   inkscape:version="1.1.2 (b8e25be833, 2022-02-05)"
   xmlns:inkscape="http://www.inkscape.org/namespaces/inkscape"
   xmlns:sodipodi="http://sodipodi.sourceforge.net/DTD/sodipodi-0.dtd"
   xmlns="http://www.w3.org/2000/svg"
   xmlns:svg="http://www.w3.org/2000/svg"
   xmlns:rdf="http://www.w3.org/1999/02/22-rdf-syntax-ns#"
   xmlns:cc="http://creativecommons.org/ns#"
   xmlns:dc="http://purl.org/dc/elements/1.1/">
  <sodipodi:namedview
     id="namedview70"
     pagecolor="#ffffff"
     bordercolor="#666666"
     borderopacity="1.0"
     inkscape:pageshadow="2"
     inkscape:pageopacity="0.0"
     inkscape:pagecheckerboard="0"
     showgrid="false"
     inkscape:zoom="4.0387097"
     inkscape:cx="132.34425"
     inkscape:cy="40.483227"
     inkscape:window-width="1920"
     inkscape:window-height="1001"
     inkscape:window-x="-9"
     inkscape:window-y="-9"
     inkscape:window-maximized="1"
     inkscape:current-layer="svg68" />
  <defs
     id="defs40">
    <linearGradient
       id="a"
       x1="31.8"
       y1="183.29"
       x2="15.02"
       y2="166.51"
       gradientTransform="matrix(1 0 0 -1 0 202)"
       gradientUnits="userSpaceOnUse">
      <stop
         offset="0"
         stop-color="#00a0ff"
         id="stop2" />
      <stop
         offset=".01"
         stop-color="#00a1ff"
         id="stop4" />
      <stop
         offset=".26"
         stop-color="#00beff"
         id="stop6" />
      <stop
         offset=".51"
         stop-color="#00d2ff"
         id="stop8" />
      <stop
         offset=".76"
         stop-color="#00dfff"
         id="stop10" />
      <stop
         offset="1"
         stop-color="#00e3ff"
         id="stop12" />
    </linearGradient>
    <linearGradient
       id="b"
       x1="43.83"
       y1="172"
       x2="19.64"
       y2="172"
       gradientTransform="matrix(1 0 0 -1 0 202)"
       gradientUnits="userSpaceOnUse">
      <stop
         offset="0"
         stop-color="#ffe000"
         id="stop15" />
      <stop
         offset=".41"
         stop-color="#ffbd00"
         id="stop17" />
      <stop
         offset=".78"
         stop-color="orange"
         id="stop19" />
      <stop
         offset="1"
         stop-color="#ff9c00"
         id="stop21" />
    </linearGradient>
    <linearGradient
       id="c"
       x1="34.83"
       y1="169.7"
       x2="12.07"
       y2="146.95"
       gradientTransform="matrix(1 0 0 -1 0 202)"
       gradientUnits="userSpaceOnUse">
      <stop
         offset="0"
         stop-color="#ff3a44"
         id="stop24" />
      <stop
         offset="1"
         stop-color="#c31162"
         id="stop26" />
    </linearGradient>
    <linearGradient
       id="d"
       x1="17.3"
       y1="191.82"
       x2="27.46"
       y2="181.66"
       gradientTransform="matrix(1 0 0 -1 0 202)"
       gradientUnits="userSpaceOnUse">
      <stop
         offset="0"
         stop-color="#32a071"
         id="stop29" />
      <stop
         offset=".07"
         stop-color="#2da771"
         id="stop31" />
      <stop
         offset=".48"
         stop-color="#15cf74"
         id="stop33" />
      <stop
         offset=".8"
         stop-color="#06e775"
         id="stop35" />
      <stop
         offset="1"
         stop-color="#00f076"
         id="stop37" />
    </linearGradient>
  </defs>
  <title
     id="title42">fil_get</title>
  <path
     fill="none"
     d="M0 0h155v60H0z"
     id="path44" />
  <rect
     x="10"
     y="10"
     width="135"
     height="40"
     rx="5"
     ry="5"
     id="rect46" />
  <path
     d="M140 10.8a4.2 4.2 0 0 1 4.2 4.2v30a4.2 4.2 0 0 1-4.2 4.2H15a4.2 4.2 0 0 1-4.2-4.2V15a4.2 4.2 0 0 1 4.2-4.2h125m0-.8H15a5 5 0 0 0-5 5v30a5 5 0 0 0 5 5h125a5 5 0 0 0 5-5V15a5 5 0 0 0-5-5z"
     fill="#a6a6a6"
     id="path48" />
  <path
     d="M37 34.13l-14.49 8.25a1.67 1.67 0 0 1-2 0l-.07.07.07.07a1.66 1.66 0 0 0 2 0l14.61-8.3z"
     style="isolation:isolate"
     opacity=".2"
     id="path62" />
  <path
     d="M20.44 42.32a2 2 0 0 1-.46-1.4v.15a2 2 0 0 0 .46 1.4l.07-.07zM42 31.3l-5 2.83.09.09L42 31.44A1.75 1.75 0 0 0 43 30a1.86 1.86 0 0 1-1 1.3z"
     style="isolation:isolate"
     opacity=".12"
     id="path64" />
  <metadata
     id="metadata887">
    <rdf:RDF>
      <cc:Work
         rdf:about="">
        <dc:title>fil_get</dc:title>
      </cc:Work>
    </rdf:RDF>
  </metadata>
  <g
     id="g871"
     transform="matrix(0.07408945,0,0,0.07408945,9.821587,6.7073123)">
    <g
       id="g1693"
       transform="matrix(3.3032258,0,0,3.3032258,-90.306034,-173.9173)">
      <path
         style="fill:none;fill-rule:evenodd;stroke:#689f38;stroke-width:8.81944;stroke-linecap:round;stroke-miterlimit:4;stroke-dasharray:none;stroke-opacity:0.3"
         id="path1917-8-3"
         sodipodi:type="arc"
         sodipodi:cx="112.75418"
         sodipodi:cy="147.8262"
         sodipodi:rx="43.236115"
         sodipodi:ry="43.236115"
         sodipodi:start="0.67233697"
         sodipodi:end="0.67323481"
         sodipodi:open="true"
         sodipodi:arc-type="arc"
         d="m 146.58075,174.75435 a 43.236115,43.236115 0 0 1 -0.0242,0.0304" />
      <path
         id="path1917-8-3-3"
         style="fill:none;fill-rule:evenodd;stroke:#689f38;stroke-width:8.81944;stroke-linecap:round;stroke-miterlimit:4;stroke-dasharray:none;stroke-opacity:0.3"
         sodipodi:type="arc"
         sodipodi:cx="112.75418"
         sodipodi:cy="147.8262"
         sodipodi:rx="28.236115"
         sodipodi:ry="28.236115"
         sodipodi:start="0.42907075"
         sodipodi:end="0.43239907"
         sodipodi:open="true"
         sodipodi:arc-type="arc"
         d="m 138.43077,159.57316 a 28.236115,28.236115 0 0 1 -0.0392,0.0854" />
      <path
         style="fill:none;stroke:#689f38;stroke-width:8.81944;stroke-linecap:round;stroke-linejoin:miter;stroke-miterlimit:4;stroke-dasharray:none;stroke-opacity:1"
         d="m 112.75417,147.8262 33.8787,-34.94778"
         id="path2823"
         sodipodi:nodetypes="cc" />
      <path
         id="path1917-8-3-5"
         style="fill:none;fill-rule:evenodd;stroke:#689f38;stroke-width:8.81944;stroke-linecap:round;stroke-miterlimit:4;stroke-dasharray:none;stroke-opacity:0.5"
         sodipodi:type="arc"
         sodipodi:cx="112.75418"
         sodipodi:cy="147.8262"
         sodipodi:rx="43.236118"
         sodipodi:ry="43.236118"
         sodipodi:start="1.0141916"
         sodipodi:end="2.0475762"
         sodipodi:open="true"
         sodipodi:arc-type="arc"
         d="m 135.5961,184.53599 a 43.236118,43.236118 0 0 1 -42.683862,1.70452" />
      <path
         id="path1917-8-3-8"
         style="fill:none;fill-rule:evenodd;stroke:#689f38;stroke-width:8.81944;stroke-linecap:round;stroke-miterlimit:4;stroke-dasharray:none;stroke-opacity:0.8"
         sodipodi:type="arc"
         sodipodi:cx="112.75418"
         sodipodi:cy="147.8262"
         sodipodi:rx="43.236118"
         sodipodi:ry="43.236118"
         sodipodi:start="2.3929646"
         sodipodi:end="3.3145943"
         sodipodi:open="true"
         sodipodi:arc-type="arc"
         d="M 81.078391,177.25419 A 43.236118,43.236118 0 0 1 70.16347,140.38354" />
      <path
         id="path1917-8-3-36"
         style="fill:none;fill-rule:evenodd;stroke:#689f38;stroke-width:8.81944;stroke-linecap:round;stroke-miterlimit:4;stroke-dasharray:none;stroke-opacity:0.8"
         sodipodi:type="arc"
         sodipodi:cx="112.75418"
         sodipodi:cy="147.8262"
         sodipodi:rx="43.236118"
         sodipodi:ry="43.236118"
         sodipodi:start="3.639508"
         sodipodi:end="4.1831917"
         sodipodi:open="true"
         sodipodi:arc-type="arc"
         d="M 74.767788,127.17685 A 43.236118,43.236118 0 0 1 90.926834,110.50424" />
      <path
         id="path1917-8-3-38"
         style="fill:none;fill-rule:evenodd;stroke:#689f38;stroke-width:8.819;stroke-linecap:round;stroke-miterlimit:4;stroke-dasharray:none;stroke-opacity:0.956522"
         sodipodi:type="arc"
         sodipodi:cx="112.75418"
         sodipodi:cy="147.8262"
         sodipodi:rx="43.236118"
         sodipodi:ry="43.236118"
         sodipodi:start="4.5031505"
         sodipodi:end="5.2057536"
         sodipodi:open="true"
         sodipodi:arc-type="arc"
         d="m 103.77339,105.53309 a 43.236118,43.236118 0 0 1 29.45707,4.21314" />
      <path
         style="fill:none;fill-rule:evenodd;stroke:#689f38;stroke-width:8.81944;stroke-linecap:round;stroke-miterlimit:4;stroke-dasharray:none;stroke-opacity:0.5"
         id="path1917-8-3-3-7"
         sodipodi:type="arc"
         sodipodi:cx="112.75418"
         sodipodi:cy="147.8262"
         sodipodi:rx="28.236116"
         sodipodi:ry="28.236116"
         sodipodi:start="0.93760633"
         sodipodi:end="1.8331053"
         sodipodi:open="true"
         sodipodi:arc-type="arc"
         d="m 129.46204,170.58858 a 28.236116,28.236116 0 0 1 -24.0298,4.50789" />
      <path
         style="fill:none;fill-rule:evenodd;stroke:#689f38;stroke-width:8.81944;stroke-linecap:round;stroke-miterlimit:4;stroke-dasharray:none;stroke-opacity:0.7"
         id="path1917-8-3-3-8"
         sodipodi:type="arc"
         sodipodi:cx="112.75418"
         sodipodi:cy="147.8262"
         sodipodi:rx="28.236116"
         sodipodi:ry="28.236116"
         sodipodi:start="2.2906553"
         sodipodi:end="5.0246255"
         sodipodi:open="true"
         sodipodi:arc-type="arc"
         d="M 94.138712,169.0569 A 28.236116,28.236116 0 0 1 88.195079,133.89319 28.236116,28.236116 0 0 1 121.42797,120.95533" />
      <path
         id="path1917-8-3-3-6-6"
         style="fill:none;fill-rule:evenodd;stroke:#689f38;stroke-width:8.81944;stroke-linecap:round;stroke-miterlimit:4;stroke-dasharray:none;stroke-opacity:0.5"
         sodipodi:type="arc"
         sodipodi:cx="112.75418"
         sodipodi:cy="147.8262"
         sodipodi:rx="13.236115"
         sodipodi:ry="13.236115"
         sodipodi:start="1.3040048"
         sodipodi:end="1.3069404"
         sodipodi:open="true"
         sodipodi:arc-type="arc"
         d="m 116.24372,160.59405 a 13.236115,13.236115 0 0 1 -0.0375,0.0102" />
      <path
         id="path1917-8-3-3-6-1"
         style="fill:none;fill-rule:evenodd;stroke:#689f38;stroke-width:8.81944;stroke-linecap:round;stroke-miterlimit:4;stroke-dasharray:none;stroke-opacity:0.7"
         sodipodi:type="arc"
         sodipodi:cx="112.75418"
         sodipodi:cy="147.8262"
         sodipodi:rx="13.236115"
         sodipodi:ry="13.236115"
         sodipodi:start="2.2953881"
         sodipodi:end="4.3552936"
         sodipodi:open="true"
         sodipodi:arc-type="arc"
         d="m 103.98089,157.73701 a 13.236115,13.236115 0 0 1 -4.240004,-12.32926 13.236115,13.236115 0 0 1 8.386554,-9.98268" />
      <circle
         style="fill:none;fill-rule:evenodd;stroke:#456925;stroke-width:4;stroke-miterlimit:4;stroke-dasharray:none;stroke-opacity:1"
         id="path1917"
         cx="112.75417"
         cy="147.8262"
         r="52.711033" />
    </g>
    <rect
       style="fill:#ffffff;fill-opacity:0.881773;stroke-width:1.30316"
       id="rect253"
       width="125.4881"
       height="116.41666"
       x="337.38126"
       y="378.69226"
       rx="10"
       ry="10" />
    <g
       aria-label="Py"
       id="text365"
       style="font-weight:bold;font-size:92.7778px;font-family:'Noto Sans';-inkscape-font-specification:'Noto Sans Bold';fill:#4d4d4d;stroke:#4caf50;stroke-width:4.99999;stroke-linecap:round">
      <path
         d="m 369.92613,392.64557 q 12.80334,0 18.64834,5.56666 5.93778,5.47389 5.93778,15.12279 0,5.75222 -2.41222,10.855 -2.41223,5.01 -8.07167,8.07167 -5.56667,3.06166 -15.21556,3.06166 h -6.03056 v 23.56557 h -14.00945 v -66.24335 z m -0.74222,11.50444 h -6.40167 v 19.6689 h 4.63889 q 5.93778,0 9.37056,-2.31945 3.52556,-2.41222 3.52556,-7.70056 0,-9.64889 -11.13334,-9.64889 z"
         style="stroke:none;stroke-width:5"
         id="path306" />
      <path
         d="m 398.68727,408.23224 h 15.12279 l 9.55611,28.48278 q 0.74222,2.04111 1.11333,4.26778 0.37111,2.13389 0.55667,4.54611 h 0.27833 q 0.27834,-2.41222 0.74223,-4.54611 0.55666,-2.22667 1.20611,-4.26778 l 9.37056,-28.48278 h 14.84444 l -21.43167,57.15112 q -2.87611,7.88612 -8.44278,11.78278 -5.47389,3.98945 -12.71056,3.98945 -2.31944,0 -4.08222,-0.27834 -1.67,-0.18555 -2.96889,-0.46388 v -10.94778 q 1.02056,0.18555 2.41222,0.37111 1.48445,0.18555 3.06167,0.18555 4.36056,0 6.86556,-2.69055 2.59778,-2.59778 3.80389,-6.30889 l 0.835,-2.50501 z"
         style="stroke:none;stroke-width:5"
         id="path308" />
    </g>
  </g>
  <g
     aria-label="GET IT ON"
     id="text3201"
     style="font-size:7.30543px;line-height:1.25;stroke-width:0.182636">
    <path
       d="m 54.845234,25.358095 q -0.435187,0.199758 -0.952417,0.349577 -0.513663,0.146251 -0.995222,0.146251 -0.620676,0 -1.137906,-0.171221 -0.51723,-0.171221 -0.881075,-0.513663 -0.367412,-0.346009 -0.56717,-0.863239 -0.199758,-0.520798 -0.199758,-1.216383 0,-1.273456 0.741958,-2.00828 0.745525,-0.738391 2.043951,-0.738391 0.453022,0 0.92388,0.110581 0.474425,0.107013 1.020192,0.367411 v 0.83827 h -0.06421 q -0.11058,-0.08561 -0.321039,-0.224728 -0.210459,-0.139117 -0.413784,-0.231861 -0.246131,-0.110581 -0.560036,-0.181923 -0.310338,-0.07491 -0.706287,-0.07491 -0.891776,0 -1.412573,0.574304 -0.51723,0.570737 -0.51723,1.548123 0,1.030893 0.5422,1.605197 0.5422,0.570737 1.476781,0.570737 0.342442,0 0.681317,-0.06778 0.342442,-0.06777 0.599274,-0.174788 v -1.301993 h -1.423275 v -0.620676 h 2.122427 z"
       style="fill:#ffffff"
       id="path9792" />
    <path
       d="m 59.578782,25.750477 h -3.49933 v -5.311419 h 3.49933 v 0.627811 h -2.793043 v 1.455378 h 2.793043 v 0.627811 h -2.793043 v 1.972608 h 2.793043 z"
       style="fill:#ffffff"
       id="path9794" />
    <path
       d="m 64.487118,21.066869 h -1.8977 v 4.683608 h -0.706287 v -4.683608 h -1.897699 v -0.627811 h 4.501686 z"
       style="fill:#ffffff"
       id="path9796" />
    <path
       d="m 69.641584,25.750477 h -2.097457 v -0.5422 h 0.695585 v -4.227019 h -0.695585 v -0.5422 h 2.097457 v 0.5422 h -0.695585 v 4.227019 h 0.695585 z"
       style="fill:#ffffff"
       id="path9798" />
    <path
       d="m 74.631962,21.066869 h -1.8977 v 4.683608 h -0.706287 v -4.683608 h -1.897699 v -0.627811 h 4.501686 z"
       style="fill:#ffffff"
       id="path9800" />
    <path
       d="m 81.873184,21.049033 q 0.324607,0.356711 0.495828,0.873941 0.174788,0.51723 0.174788,1.173577 0,0.656347 -0.178355,1.177145 -0.174789,0.51723 -0.492261,0.863239 -0.328173,0.360277 -0.777629,0.5422 -0.445888,0.181922 -1.020191,0.181922 -0.560036,0 -1.020192,-0.185489 -0.45659,-0.18549 -0.777629,-0.538633 -0.32104,-0.353143 -0.495828,-0.866807 -0.171221,-0.513663 -0.171221,-1.173577 0,-0.649213 0.171221,-1.162876 0.171221,-0.51723 0.499395,-0.884642 0.313905,-0.349576 0.777629,-0.535066 0.46729,-0.185489 1.016625,-0.185489 0.570736,0 1.023759,0.189057 0.456589,0.185489 0.774061,0.531498 z m -0.06421,2.047518 q 0,-1.03446 -0.463723,-1.594496 -0.463724,-0.563602 -1.266322,-0.563602 -0.809733,0 -1.273457,0.563602 -0.460156,0.560036 -0.460156,1.594496 0,1.045162 0.470858,1.60163 0.470857,0.552901 1.262755,0.552901 0.791897,0 1.259188,-0.552901 0.470857,-0.556468 0.470857,-1.60163 z"
       style="fill:#ffffff"
       id="path9802" />
    <path
       d="m 87.716102,25.750477 h -0.87394 l -2.518376,-4.751383 v 4.751383 h -0.659914 v -5.311419 h 1.095101 l 2.297215,4.337599 v -4.337599 h 0.659914 z"
       style="fill:#ffffff"
       id="path9804" />
  </g>
  <g
     aria-label="radarsimx.com"
     id="text3201-2"
     style="font-size:11.9135px;line-height:1.25;stroke-width:0.297839">
    <path
       d="m 54.166231,35.020865 h -0.05817 q -0.24432,-0.05817 -0.477006,-0.08144 -0.226868,-0.02909 -0.540994,-0.02909 -0.506091,0 -0.977279,0.226868 -0.471188,0.221051 -0.907473,0.575897 v 4.612991 h -1.093623 v -6.497744 h 1.093623 v 0.959828 q 0.651519,-0.523543 1.145976,-0.738777 0.500274,-0.221051 1.017999,-0.221051 0.28504,0 0.413017,0.01745 0.127977,0.01163 0.383931,0.05235 z"
       style="fill:#ffffff"
       id="path9825" />
    <path
       d="m 60.035724,40.326096 h -1.087805 v -0.69224 q -0.145429,0.09889 -0.395566,0.279223 -0.244319,0.174514 -0.477005,0.279222 -0.273405,0.133795 -0.628251,0.221052 -0.354845,0.09307 -0.831851,0.09307 -0.878388,0 -1.489187,-0.581714 -0.6108,-0.581714 -0.6108,-1.48337 0,-0.738777 0.314126,-1.192514 0.319942,-0.459554 0.907473,-0.721325 0.593349,-0.261771 1.425199,-0.354845 0.831851,-0.09308 1.785862,-0.139612 V 35.86435 q 0,-0.372297 -0.133794,-0.616616 -0.127977,-0.24432 -0.372297,-0.383932 -0.232686,-0.133794 -0.558445,-0.180331 -0.32576,-0.04654 -0.680606,-0.04654 -0.430468,0 -0.959828,0.116343 -0.529359,0.110525 -1.093622,0.32576 h -0.05817 v -1.111074 q 0.319943,-0.08726 0.924925,-0.191965 0.604982,-0.104709 1.192513,-0.104709 0.686423,0 1.192514,0.116343 0.511908,0.110525 0.884205,0.383931 0.36648,0.267588 0.558445,0.692239 0.191966,0.424652 0.191966,1.052903 z m -1.087805,-1.599714 v -1.80913 q -0.500274,0.02909 -1.180879,0.08726 -0.674788,0.05817 -1.070354,0.168697 -0.471188,0.133795 -0.762045,0.418834 -0.290857,0.279223 -0.290857,0.77368 0,0.558445 0.337394,0.843485 0.337394,0.279223 1.029634,0.279223 0.575896,0 1.052902,-0.221052 0.477005,-0.226868 0.884205,-0.540994 z"
       style="fill:#ffffff"
       id="path9827" />
    <path
       d="M 67.411855,40.326096 H 66.318233 V 39.64549 q -0.471188,0.4072 -0.983096,0.634068 -0.511908,0.226869 -1.111074,0.226869 -1.163427,0 -1.84985,-0.895839 -0.680605,-0.89584 -0.680605,-2.483919 0,-0.826033 0.232686,-1.471736 0.238502,-0.645702 0.639885,-1.099439 0.395565,-0.442102 0.919108,-0.674788 0.529359,-0.232686 1.093622,-0.232686 0.511908,0 0.907474,0.110526 0.395565,0.104709 0.83185,0.331577 v -2.815495 h 1.093622 z m -1.093622,-1.599714 v -3.728785 q -0.442102,-0.197783 -0.79113,-0.273406 -0.349029,-0.07562 -0.762046,-0.07562 -0.919108,0 -1.431016,0.639886 -0.511908,0.639885 -0.511908,1.814947 0,1.15761 0.395565,1.762593 0.395566,0.599165 1.268137,0.599165 0.465371,0 0.942376,-0.2036 0.477006,-0.209417 0.890022,-0.535177 z"
       style="fill:#ffffff"
       id="path9829" />
    <path
       d="m 74.613473,40.326096 h -1.087805 v -0.69224 q -0.145429,0.09889 -0.395566,0.279223 -0.24432,0.174514 -0.477005,0.279222 -0.273406,0.133795 -0.628251,0.221052 -0.354846,0.09307 -0.831851,0.09307 -0.878388,0 -1.489187,-0.581714 -0.6108,-0.581714 -0.6108,-1.48337 0,-0.738777 0.314126,-1.192514 0.319942,-0.459554 0.907473,-0.721325 0.593348,-0.261771 1.425199,-0.354845 0.831851,-0.09308 1.785862,-0.139612 V 35.86435 q 0,-0.372297 -0.133795,-0.616616 -0.127977,-0.24432 -0.372296,-0.383932 -0.232686,-0.133794 -0.558446,-0.180331 -0.325759,-0.04654 -0.680605,-0.04654 -0.430468,0 -0.959828,0.116343 -0.529359,0.110525 -1.093622,0.32576 h -0.05817 v -1.111074 q 0.319942,-0.08726 0.924925,-0.191965 0.604982,-0.104709 1.192513,-0.104709 0.686423,0 1.192514,0.116343 0.511908,0.110525 0.884205,0.383931 0.366479,0.267588 0.558445,0.692239 0.191966,0.424652 0.191966,1.052903 z m -1.087805,-1.599714 v -1.80913 q -0.500274,0.02909 -1.180879,0.08726 -0.674789,0.05817 -1.070354,0.168697 -0.471188,0.133795 -0.762045,0.418834 -0.290857,0.279223 -0.290857,0.77368 0,0.558445 0.337394,0.843485 0.337394,0.279223 1.029634,0.279223 0.575896,0 1.052902,-0.221052 0.477005,-0.226868 0.884205,-0.540994 z"
       style="fill:#ffffff"
       id="path9831" />
    <path
       d="m 80.773823,35.020865 h -0.05817 q -0.24432,-0.05817 -0.477005,-0.08144 -0.226868,-0.02909 -0.540994,-0.02909 -0.506091,0 -0.977279,0.226868 -0.471188,0.221051 -0.907474,0.575897 v 4.612991 h -1.093622 v -6.497744 h 1.093622 v 0.959828 q 0.65152,-0.523543 1.145976,-0.738777 0.500274,-0.221051 1.018,-0.221051 0.28504,0 0.413017,0.01745 0.127977,0.01163 0.383931,0.05235 z"
       style="fill:#ffffff"
       id="path9833" />
    <path
       d="m 86.445533,38.452977 q 0,0.890022 -0.738777,1.460102 -0.732959,0.570079 -2.006913,0.570079 -0.721325,0 -1.326307,-0.168697 -0.599166,-0.174514 -1.006365,-0.378114 v -1.227416 h 0.05817 q 0.517725,0.389748 1.151793,0.622434 0.634069,0.226868 1.215782,0.226868 0.721326,0 1.128525,-0.232685 0.4072,-0.232686 0.4072,-0.73296 0,-0.383931 -0.221051,-0.581714 -0.221052,-0.197782 -0.849302,-0.337394 -0.232686,-0.05235 -0.6108,-0.12216 -0.372297,-0.0698 -0.680605,-0.151245 -0.85512,-0.226869 -1.215782,-0.663154 -0.354846,-0.442102 -0.354846,-1.081988 0,-0.401382 0.16288,-0.756228 0.168697,-0.354845 0.506091,-0.634068 0.32576,-0.273405 0.826034,-0.430468 0.506091,-0.16288 1.128525,-0.16288 0.581714,0 1.175062,0.145428 0.599165,0.139612 0.994731,0.343212 v 1.169245 h -0.05817 q -0.418834,-0.308309 -1.017999,-0.517726 -0.599165,-0.215234 -1.175062,-0.215234 -0.599165,0 -1.012182,0.232686 -0.413017,0.226868 -0.413017,0.680605 0,0.401382 0.250137,0.604982 0.24432,0.2036 0.791131,0.331577 0.302491,0.06981 0.674788,0.139611 0.378114,0.06981 0.628251,0.127978 0.762045,0.174514 1.175062,0.599165 0.413017,0.430468 0.413017,1.140159 z"
       style="fill:#ffffff"
       id="path9835" />
    <path
       d="m 89.185406,32.740547 h -1.233233 v -1.134342 h 1.233233 z m -0.06981,7.585549 h -1.093622 v -6.497744 h 1.093622 z"
       style="fill:#ffffff"
       id="path9837" />
    <path
       d="m 100.76151,40.326096 h -1.093622 v -3.699701 q 0,-0.418834 -0.04072,-0.808582 -0.0349,-0.389748 -0.157063,-0.622434 -0.133794,-0.250137 -0.383931,-0.378114 -0.250137,-0.127977 -0.721325,-0.127977 -0.459554,0 -0.919108,0.232686 -0.459554,0.226868 -0.919108,0.581714 0.01745,0.133794 0.02909,0.314125 0.01163,0.174514 0.01163,0.349028 v 4.159255 h -1.093622 v -3.699701 q 0,-0.430468 -0.04072,-0.814399 -0.0349,-0.389748 -0.157063,-0.622434 -0.133794,-0.250137 -0.383931,-0.372297 -0.250137,-0.127977 -0.721325,-0.127977 -0.44792,0 -0.901656,0.221052 -0.44792,0.221051 -0.89584,0.564262 v 4.851494 h -1.093622 v -6.497744 h 1.093622 v 0.721325 q 0.511908,-0.424651 1.017999,-0.663154 0.511909,-0.238503 1.087805,-0.238503 0.663154,0 1.122708,0.279223 0.465371,0.279223 0.69224,0.77368 0.663153,-0.558446 1.209964,-0.802766 0.546811,-0.250137 1.169245,-0.250137 1.070354,0 1.576443,0.65152 0.51191,0.645702 0.51191,1.80913 z"
       style="fill:#ffffff"
       id="path9839" />
    <path
       d="m 108.49249,40.326096 h -1.37866 l -1.84404,-2.495553 -1.85566,2.495553 h -1.27396 l 2.53628,-3.240147 -2.51301,-3.257597 h 1.37866 l 1.8324,2.454832 1.83822,-2.454832 h 1.27977 l -2.55372,3.199426 z"
       style="fill:#ffffff"
       id="path9841" />
    <path
       d="m 111.70355,40.326096 h -1.3903 v -1.657885 h 1.3903 z"
       style="fill:#ffffff"
       id="path9843" />
    <path
       d="m 119.05641,39.918896 q -0.54681,0.261771 -1.04127,0.4072 -0.48863,0.145428 -1.04126,0.145428 -0.70388,0 -1.29141,-0.2036 -0.58753,-0.209417 -1.00636,-0.628251 -0.42465,-0.418834 -0.65734,-1.058719 -0.23269,-0.639885 -0.23269,-1.495005 0,-1.593896 0.87258,-2.501369 0.87838,-0.907474 2.31522,-0.907474 0.55844,0 1.09362,0.157063 0.54099,0.157063 0.98891,0.383931 v 1.215782 h -0.0582 q -0.50027,-0.389748 -1.03545,-0.599165 -0.52936,-0.209417 -1.03545,-0.209417 -0.93074,0 -1.47174,0.628251 -0.53517,0.622434 -0.53517,1.832398 0,1.175062 0.52354,1.80913 0.52936,0.628251 1.48337,0.628251 0.33158,0 0.67479,-0.08726 0.34321,-0.08726 0.61661,-0.226868 0.23851,-0.12216 0.44792,-0.255954 0.20942,-0.139611 0.33158,-0.238503 h 0.0582 z"
       style="fill:#ffffff"
       id="path9845" />
    <path
       d="m 125.99626,37.080132 q 0,1.588079 -0.8144,2.507187 -0.8144,0.919108 -2.18143,0.919108 -1.37866,0 -2.19306,-0.919108 -0.80858,-0.919108 -0.80858,-2.507187 0,-1.588079 0.80858,-2.507186 0.8144,-0.924926 2.19306,-0.924926 1.36703,0 2.18143,0.924926 0.8144,0.919107 0.8144,2.507186 z m -1.12853,0 q 0,-1.262319 -0.49445,-1.873118 -0.49446,-0.616617 -1.37285,-0.616617 -0.89002,0 -1.38448,0.616617 -0.48864,0.610799 -0.48864,1.873118 0,1.221599 0.49446,1.855667 0.49446,0.628251 1.37866,0.628251 0.87257,0 1.36703,-0.622433 0.50027,-0.628251 0.50027,-1.861485 z"
       style="fill:#ffffff"
       id="path9847" />
    <path
       d="m 137.17098,40.326096 h -1.09362 v -3.699701 q 0,-0.418834 -0.0407,-0.808582 -0.0349,-0.389748 -0.15706,-0.622434 -0.1338,-0.250137 -0.38393,-0.378114 -0.25014,-0.127977 -0.72133,-0.127977 -0.45955,0 -0.91911,0.232686 -0.45955,0.226868 -0.9191,0.581714 0.0174,0.133794 0.0291,0.314125 0.0116,0.174514 0.0116,0.349028 v 4.159255 h -1.09363 v -3.699701 q 0,-0.430468 -0.0407,-0.814399 -0.0349,-0.389748 -0.15706,-0.622434 -0.13379,-0.250137 -0.38393,-0.372297 -0.25014,-0.127977 -0.72132,-0.127977 -0.44792,0 -0.90166,0.221052 -0.44792,0.221051 -0.89584,0.564262 v 4.851494 h -1.09362 v -6.497744 h 1.09362 v 0.721325 q 0.51191,-0.424651 1.018,-0.663154 0.51191,-0.238503 1.0878,-0.238503 0.66316,0 1.12271,0.279223 0.46537,0.279223 0.69224,0.77368 0.66315,-0.558446 1.20997,-0.802766 0.54681,-0.250137 1.16924,-0.250137 1.07035,0 1.57645,0.65152 0.5119,0.645702 0.5119,1.80913 z"
       style="fill:#ffffff"
       id="path9849" />
  </g>
</svg>
